<svg width="2051" height="575" viewBox="0 0 2051 575" fill="none" xmlns="http://www.w3.org/2000/svg">
<path d="M0 0L322.112 0.00543632L396.921 74.8503L396.911 143.179L302.051 48.3657L250.993 48.3616L48.3367 48.358L48.3318 289.861L0.00362003 241.565L0 0Z" fill="#37B6FF"/>
<path d="M348.633 173.421C352.965 177.005 360.958 185.488 365.308 189.833L396.92 221.432V463.066L74.9173 463.093C55.0428 442.792 34.3757 422.528 14.257 402.404L0.0154825 388.158L0.0078125 319.855C31.658 350.495 63.6983 383.496 94.9569 414.752L348.592 414.761L348.633 173.421Z" fill="#37B6FF"/>
<path d="M103.697 103.633L293.357 103.632L293.366 152.05L103.676 152.051L103.697 103.633Z" fill="#37B6FF"/>
<path d="M103.672 311.062H293.363L293.354 359.394L103.696 359.412L103.672 311.062Z" fill="#37B6FF"/>
<path d="M103.703 207.391L293.357 207.383L293.402 237.763C293.411 243.098 293.601 249.926 293.235 255.139C292.326 256.034 292.055 255.708 290.323 255.758L103.71 255.753L103.703 207.391Z" fill="#37B6FF"/>
<path d="M1928.58 151.382V73.6611H1981.32V151.382H2050.71V198.015H1981.32V368.704C1981.32 385.729 1984.65 397.757 1991.31 404.789C1998.34 411.821 2007.04 415.892 2017.4 417.002C2028.13 417.742 2039.24 417.372 2050.71 415.892V460.859C2035.53 464.19 2020.55 465.115 2005.74 463.635C1991.31 462.524 1978.17 458.453 1966.33 451.421C1954.85 444.389 1945.6 434.212 1938.57 420.888C1931.91 407.194 1928.58 389.8 1928.58 368.704V198.015H1888.61V151.382H1928.58Z" fill="black"/>
<path d="M1748.01 466.965C1721.73 466.965 1698.05 461.228 1676.95 449.755C1656.22 437.912 1639.94 421.443 1628.1 400.347C1616.25 378.881 1610.33 353.714 1610.33 324.847C1610.33 295.609 1616.44 270.257 1628.65 248.791C1640.87 227.325 1657.52 210.856 1678.62 199.383C1699.71 187.54 1723.4 181.618 1749.67 181.618C1775.95 181.618 1799.64 187.54 1820.73 199.383C1842.2 210.856 1859.04 227.325 1871.25 248.791C1883.47 269.887 1889.57 294.869 1889.57 323.736C1889.57 352.974 1883.28 378.326 1870.7 399.792C1858.48 421.258 1841.64 437.912 1820.18 449.755C1798.71 461.228 1774.66 466.965 1748.01 466.965ZM1747.45 419.222C1762.26 419.222 1776.14 415.891 1789.09 409.229C1802.04 402.198 1812.59 391.65 1820.73 377.586C1829.25 363.522 1833.5 345.572 1833.5 323.736C1833.5 302.271 1829.43 284.691 1821.29 270.997C1813.52 256.933 1803.15 246.571 1790.2 239.909C1777.25 232.877 1763.37 229.361 1748.56 229.361C1734.13 229.361 1720.62 232.877 1708.04 239.909C1695.83 246.571 1685.83 256.933 1678.06 270.997C1670.29 285.061 1666.4 303.011 1666.4 324.847C1666.4 346.312 1670.1 364.077 1677.51 378.141C1685.28 391.835 1695.27 402.198 1707.48 409.229C1719.7 415.891 1733.02 419.222 1747.45 419.222Z" fill="black"/>
<path d="M1528 74.7451H1580.18V463.078H1528V74.7451Z" fill="black"/>
<path d="M1421.09 185.505H1473.83V463.079H1421.09V185.505ZM1447.74 143.151C1437.74 143.151 1429.42 139.82 1422.75 133.158C1416.09 126.496 1412.76 118.354 1412.76 108.732C1412.76 98.739 1416.09 90.4118 1422.75 83.75C1429.42 76.7181 1437.74 73.2021 1447.74 73.2021C1457.36 73.2021 1465.5 76.7181 1472.16 83.75C1479.19 90.4118 1482.71 98.739 1482.71 108.732C1482.71 118.354 1479.19 126.496 1472.16 133.158C1465.5 139.82 1457.36 143.151 1447.74 143.151Z" fill="black"/>
<path d="M1157.66 415.891L1163.21 414.226V574.109H1111.03V185.504H1158.77L1162.66 227.14C1171.54 214.557 1183.75 203.824 1199.3 194.942C1215.21 186.059 1234.46 181.618 1257.03 181.618C1281.46 181.618 1303.11 187.54 1321.98 199.383C1340.86 211.226 1355.66 227.881 1366.4 249.346C1377.5 270.442 1383.05 295.424 1383.05 324.292C1383.05 352.789 1377.68 377.771 1366.95 399.237C1356.59 420.702 1341.97 437.357 1323.09 449.2C1304.22 461.043 1282.2 466.965 1257.03 466.965C1232.98 466.965 1212.43 462.154 1195.41 452.531C1178.76 442.538 1166.17 430.325 1157.66 415.891ZM1326.43 324.292C1326.43 295.794 1318.84 272.848 1303.66 255.453C1288.86 238.058 1269.43 229.361 1245.37 229.361C1229.83 229.361 1215.95 233.062 1203.74 240.464C1191.52 247.866 1181.72 258.599 1174.31 272.663C1166.91 286.726 1163.21 303.936 1163.21 324.292C1163.21 344.277 1166.91 361.301 1174.31 375.365C1181.72 389.429 1191.52 400.347 1203.74 408.119C1215.95 415.521 1229.83 419.222 1245.37 419.222C1269.43 419.222 1288.86 410.525 1303.66 393.13C1318.84 375.735 1326.43 352.789 1326.43 324.292Z" fill="black"/>
<path d="M939.013 466.965C912.736 466.965 889.049 461.228 867.954 449.755C847.228 437.912 830.944 421.443 819.101 400.347C807.258 378.881 801.336 353.714 801.336 324.847C801.336 295.609 807.443 270.257 819.656 248.791C831.869 227.325 848.524 210.856 869.619 199.383C890.715 187.54 914.401 181.618 940.678 181.618C966.955 181.618 990.642 187.54 1011.74 199.383C1033.2 210.856 1050.04 227.325 1062.26 248.791C1074.47 269.887 1080.58 294.869 1080.58 323.736C1080.58 352.974 1074.28 378.326 1061.7 399.792C1049.49 421.258 1032.65 437.912 1011.18 449.755C989.717 461.228 965.66 466.965 939.013 466.965ZM938.458 419.222C953.262 419.222 967.14 415.891 980.094 409.229C993.047 402.198 1003.59 391.65 1011.74 377.586C1020.25 363.522 1024.51 345.572 1024.51 323.736C1024.51 302.271 1020.43 284.691 1012.29 270.997C1004.52 256.933 994.158 246.571 981.204 239.909C968.251 232.877 954.372 229.361 939.568 229.361C925.134 229.361 911.626 232.877 899.042 239.909C886.829 246.571 876.836 256.933 869.064 270.997C861.292 285.061 857.406 303.011 857.406 324.847C857.406 346.312 861.107 364.077 868.509 378.141C876.281 391.835 886.274 402.198 898.487 409.229C910.7 415.891 924.024 419.222 938.458 419.222Z" fill="black"/>
<path d="M526.094 74.4746H581.609V242.685H601.594L753.705 74.4746H823.654L651.002 266.001L825.874 463.079H753.15L601.039 289.317H581.609V463.079H526.094V74.4746Z" fill="black"/>
</svg>
