<svg width="2002" height="574" viewBox="0 0 2002 574" fill="none" xmlns="http://www.w3.org/2000/svg">
<g clip-path="url(#clip0_9798_16726)">
<path d="M1 0L323.112 0.00543632L397.921 74.8503L397.911 143.179L303.051 48.3657L251.993 48.3616L49.3367 48.358L49.3318 289.861L1.00362 241.565L1 0Z" fill="#37B6FF"/>
<path d="M349.633 173.421C353.965 177.005 361.958 185.488 366.308 189.833L397.92 221.432V463.066L75.9173 463.093C56.0428 442.792 35.3757 422.528 15.257 402.404L1.01548 388.158L1.00781 319.855C32.658 350.495 64.6983 383.496 95.9569 414.752L349.592 414.761L349.633 173.421Z" fill="#37B6FF"/>
<path d="M104.697 103.633L294.357 103.632L294.366 152.05L104.676 152.051L104.697 103.633Z" fill="#37B6FF"/>
<path d="M104.672 311.062H294.363L294.354 359.394L104.696 359.412L104.672 311.062Z" fill="#37B6FF"/>
<path d="M104.703 207.391L294.357 207.383L294.402 237.763C294.411 243.098 294.601 249.926 294.235 255.139C293.326 256.034 293.055 255.708 291.323 255.758L104.71 255.753L104.703 207.391Z" fill="#37B6FF"/>
<path d="M1879.58 151.382V73.6611H1932.32V151.382H2001.71V198.015H1932.32V368.704C1932.32 385.729 1935.65 397.757 1942.31 404.789C1949.34 411.821 1958.04 415.892 1968.4 417.002C1979.13 417.742 1990.24 417.372 2001.71 415.892V460.859C1986.53 464.19 1971.55 465.115 1956.74 463.635C1942.31 462.524 1929.17 458.453 1917.33 451.421C1905.85 444.389 1896.6 434.212 1889.57 420.888C1882.91 407.194 1879.58 389.8 1879.58 368.704V198.015H1839.61V151.382H1879.58Z" fill="black"/>
<path d="M1699.01 466.965C1672.73 466.965 1649.05 461.228 1627.95 449.755C1607.22 437.912 1590.94 421.443 1579.1 400.347C1567.25 378.881 1561.33 353.714 1561.33 324.847C1561.33 295.609 1567.44 270.257 1579.65 248.791C1591.87 227.325 1608.52 210.856 1629.62 199.383C1650.71 187.54 1674.4 181.618 1700.67 181.618C1726.95 181.618 1750.64 187.54 1771.73 199.383C1793.2 210.856 1810.04 227.325 1822.25 248.791C1834.47 269.887 1840.57 294.869 1840.57 323.736C1840.57 352.974 1834.28 378.326 1821.7 399.792C1809.48 421.258 1792.64 437.912 1771.18 449.755C1749.71 461.228 1725.66 466.965 1699.01 466.965ZM1698.45 419.222C1713.26 419.222 1727.14 415.891 1740.09 409.229C1753.04 402.198 1763.59 391.65 1771.73 377.586C1780.25 363.522 1784.5 345.572 1784.5 323.736C1784.5 302.271 1780.43 284.691 1772.29 270.997C1764.52 256.933 1754.15 246.571 1741.2 239.909C1728.25 232.877 1714.37 229.361 1699.56 229.361C1685.13 229.361 1671.62 232.877 1659.04 239.909C1646.83 246.571 1636.83 256.933 1629.06 270.997C1621.29 285.061 1617.4 303.011 1617.4 324.847C1617.4 346.312 1621.1 364.077 1628.51 378.141C1636.28 391.835 1646.27 402.198 1658.48 409.229C1670.7 415.891 1684.02 419.222 1698.45 419.222Z" fill="black"/>
<path d="M1479 74.7451H1531.18V463.078H1479V74.7451Z" fill="black"/>
<path d="M1372.09 185.505H1424.83V463.079H1372.09V185.505ZM1398.74 143.151C1388.74 143.151 1380.42 139.82 1373.75 133.158C1367.09 126.496 1363.76 118.354 1363.76 108.732C1363.76 98.739 1367.09 90.4118 1373.75 83.75C1380.42 76.7181 1388.74 73.2021 1398.74 73.2021C1408.36 73.2021 1416.5 76.7181 1423.16 83.75C1430.19 90.4118 1433.71 98.739 1433.71 108.732C1433.71 118.354 1430.19 126.496 1423.16 133.158C1416.5 139.82 1408.36 143.151 1398.74 143.151Z" fill="black"/>
<path d="M1108.66 415.891L1114.21 414.226V574.109H1062.03V185.504H1109.77L1113.66 227.14C1122.54 214.557 1134.75 203.824 1150.3 194.942C1166.21 186.059 1185.46 181.618 1208.03 181.618C1232.46 181.618 1254.11 187.54 1272.98 199.383C1291.86 211.226 1306.66 227.881 1317.4 249.346C1328.5 270.442 1334.05 295.424 1334.05 324.292C1334.05 352.789 1328.68 377.771 1317.95 399.237C1307.59 420.702 1292.97 437.357 1274.09 449.2C1255.22 461.043 1233.2 466.965 1208.03 466.965C1183.98 466.965 1163.43 462.154 1146.41 452.531C1129.76 442.538 1117.17 430.325 1108.66 415.891ZM1277.43 324.292C1277.43 295.794 1269.84 272.848 1254.66 255.453C1239.86 238.058 1220.43 229.361 1196.37 229.361C1180.83 229.361 1166.95 233.062 1154.74 240.464C1142.52 247.866 1132.72 258.599 1125.31 272.663C1117.91 286.726 1114.21 303.936 1114.21 324.292C1114.21 344.277 1117.91 361.301 1125.31 375.365C1132.72 389.429 1142.52 400.347 1154.74 408.119C1166.95 415.521 1180.83 419.222 1196.37 419.222C1220.43 419.222 1239.86 410.525 1254.66 393.13C1269.84 375.735 1277.43 352.789 1277.43 324.292Z" fill="black"/>
<path d="M890.013 466.965C863.736 466.965 840.049 461.228 818.954 449.755C798.228 437.912 781.944 421.443 770.101 400.347C758.258 378.881 752.336 353.714 752.336 324.847C752.336 295.609 758.443 270.257 770.656 248.791C782.869 227.325 799.524 210.856 820.619 199.383C841.715 187.54 865.401 181.618 891.678 181.618C917.955 181.618 941.642 187.54 962.737 199.383C984.203 210.856 1001.04 227.325 1013.26 248.791C1025.47 269.887 1031.58 294.869 1031.58 323.736C1031.58 352.974 1025.28 378.326 1012.7 399.792C1000.49 421.258 983.648 437.912 962.182 449.755C940.717 461.228 916.66 466.965 890.013 466.965ZM889.458 419.222C904.262 419.222 918.14 415.891 931.094 409.229C944.047 402.198 954.595 391.65 962.737 377.586C971.25 363.522 975.506 345.572 975.506 323.736C975.506 302.271 971.435 284.691 963.293 270.997C955.521 256.933 945.158 246.571 932.204 239.909C919.251 232.877 905.372 229.361 890.568 229.361C876.134 229.361 862.626 232.877 850.042 239.909C837.829 246.571 827.836 256.933 820.064 270.997C812.292 285.061 808.406 303.011 808.406 324.847C808.406 346.312 812.107 364.077 819.509 378.141C827.281 391.835 837.274 402.198 849.487 409.229C861.7 415.891 875.024 419.222 889.458 419.222Z" fill="black"/>
<path d="M477.094 74.4746H532.609V242.685H552.594L704.705 74.4746H774.654L602.002 266.001L776.874 463.079H704.15L552.039 289.317H532.609V463.079H477.094V74.4746Z" fill="black"/>
</g>
<defs>
<clipPath id="clip0_9798_16726">
<rect width="2002" height="574" fill="white"/>
</clipPath>
</defs>
</svg>
