<svg width="397" height="464" viewBox="0 0 397 464" fill="none" xmlns="http://www.w3.org/2000/svg">
<path d="M0 0L322.112 0.00543632L396.921 74.8503L396.911 143.179L302.051 48.3657L250.993 48.3616L48.3367 48.358L48.3318 289.861L0.00362003 241.565L0 0Z" fill="#37B6FF"/>
<path d="M348.633 173.421C352.965 177.005 360.958 185.488 365.308 189.833L396.92 221.432V463.066L74.9173 463.093C55.0428 442.792 34.3757 422.528 14.257 402.404L0.0154825 388.158L0.0078125 319.855C31.658 350.495 63.6983 383.496 94.9569 414.752L348.592 414.761L348.633 173.421Z" fill="#37B6FF"/>
<path d="M103.697 103.633L293.357 103.632L293.366 152.05L103.676 152.051L103.697 103.633Z" fill="#37B6FF"/>
<path d="M103.672 311.062H293.363L293.354 359.394L103.696 359.412L103.672 311.062Z" fill="#37B6FF"/>
<path d="M103.703 207.391L293.357 207.383L293.402 237.763C293.411 243.098 293.601 249.926 293.235 255.139C292.326 256.034 292.055 255.708 290.323 255.758L103.71 255.753L103.703 207.391Z" fill="#37B6FF"/>
</svg>
